<svg xmlns="http://www.w3.org/2000/svg" version="1.1" xmlns:xlink="http://www.w3.org/1999/xlink" xmlns:svgjs="http://svgjs.dev/svgjs" width="1500" height="318" viewBox="0 0 1500 318"><g transform="matrix(1,0,0,1,-0.9090909090909918,-0.9450625009377518)"><svg viewBox="0 0 396 84" data-background-color="#ffffff" preserveAspectRatio="xMidYMid meet" height="318" width="1500" xmlns="http://www.w3.org/2000/svg" xmlns:xlink="http://www.w3.org/1999/xlink"><g id="tight-bounds" transform="matrix(1,0,0,1,0.2400000000000091,0.24963915119110425)"><svg viewBox="0 0 395.52 83.50038361467855" height="83.50038361467855" width="395.52"><g><svg viewBox="0 0 528.8080378502854 111.63954798499263" height="83.50038361467855" width="395.52"><g transform="matrix(1,0,0,1,133.28803785028538,32.89443441404198)"><svg viewBox="0 0 395.52 45.85067915690867" height="45.85067915690867" width="395.52"><g id="textblocktransform"><svg viewBox="0 0 395.52 45.85067915690867" height="45.85067915690867" width="395.52" id="textblock"><g><svg viewBox="0 0 395.52 45.85067915690867" height="45.85067915690867" width="395.52"><g transform="matrix(1,0,0,1,0,0)"><svg width="395.52" viewBox="1 -38.9 341.57 39.6" height="45.85067915690867" data-palette-color="#1d4ed8"><path d="M1 0L1-8.2 3.5-8.2 3.5-30.7 1-30.7 1-38.9 23.95-38.9Q30.2-38.9 33.7-36.35 37.2-33.8 37.2-29.05L37.2-29.05Q37.2-26.1 35.8-24.08 34.4-22.05 32.52-21.03 30.65-20 28.9-19.65L28.9-19.65 28.9-19.15Q32.45-18.8 35.3-16.9 38.15-15 38.15-10.1L38.15-10.1Q38.15-4.85 34.2-2.43 30.25 0 23.95 0L23.95 0 1 0ZM17.5-22.5L20.2-22.5Q21.65-22.5 22.38-23.28 23.1-24.05 23.1-25.7L23.1-25.7 23.1-27.5Q23.1-29.15 22.38-29.93 21.65-30.7 20.2-30.7L20.2-30.7 17.5-30.7 17.5-22.5ZM17.5-8.2L20.55-8.2Q22-8.2 22.73-8.97 23.45-9.75 23.45-11.4L23.45-11.4 23.45-13.6Q23.45-15.25 22.73-16.03 22-16.8 20.55-16.8L20.55-16.8 17.5-16.8 17.5-8.2ZM70.35-8.2L72.55-8.2 72.55 0 58.85 0 58.85-3.9Q55.25 0.7 49.85 0.7L49.85 0.7Q45.7 0.7 43.62-1.9 41.55-4.5 41.55-9.05L41.55-9.05 41.55-19.6 39.35-19.6 39.35-27.8 53.05-27.8 53.05-11.4Q53.05-9.75 53.77-8.97 54.5-8.2 55.95-8.2L55.95-8.2Q57.4-8.2 58.12-8.97 58.85-9.75 58.85-11.4L58.85-11.4 58.85-19.6 56.15-19.6 56.15-27.8 70.35-27.8 70.35-8.2ZM86.1 0.7Q79.8 0.7 73.95-1.3L73.95-1.3 73.95-8.7 82.05-8.7 82.05-8.2Q82.05-5.8 85.1-5.8L85.1-5.8Q87.8-5.8 87.8-7.65L87.8-7.65Q87.8-8.65 87.02-9.15 86.25-9.65 84.3-10L84.3-10 81.8-10.45Q73.95-11.85 73.95-19.35L73.95-19.35Q73.95-23.7 77.25-26.1 80.55-28.5 86.15-28.5L86.15-28.5Q92.4-28.5 96.7-26.4L96.7-26.4 96.7-19.45 89.1-19.45 89.1-19.95Q89.1-20.95 88.42-21.48 87.75-22 86.45-22L86.45-22Q83.95-22 83.95-20.4L83.95-20.4Q83.95-19.55 84.65-19.1 85.35-18.65 87.2-18.25L87.2-18.25 90.05-17.7Q94.5-16.85 96.4-14.55 98.3-12.25 98.3-8.65L98.3-8.65Q98.3-4.1 95.12-1.7 91.95 0.7 86.1 0.7L86.1 0.7ZM112.49-30.55L102.29-30.55 102.29-38.9 112.49-38.9 112.49-30.55ZM115.79 0L99.89 0 99.89-8.2 102.09-8.2 102.09-19.6 99.89-19.6 99.89-27.8 113.59-27.8 113.59-8.2 115.79-8.2 115.79 0ZM148.19-8.2L150.39-8.2 150.39 0 134.59 0 134.59-8.2 136.69-8.2 136.69-16.4Q136.69-18.05 135.99-18.82 135.29-19.6 133.89-19.6L133.89-19.6Q130.89-19.6 130.89-16.4L130.89-16.4 130.89-8.2 132.99-8.2 132.99 0 117.19 0 117.19-8.2 119.39-8.2 119.39-19.6 117.19-19.6 117.19-27.8 130.89-27.8 130.89-23.9Q134.49-28.5 139.89-28.5L139.89-28.5Q144.04-28.5 146.12-25.9 148.19-23.3 148.19-18.75L148.19-18.75 148.19-8.2ZM166.89 0.7Q159.79 0.7 155.79-3.03 151.79-6.75 151.79-13.9L151.79-13.9Q151.79-21.05 155.79-24.78 159.79-28.5 166.89-28.5L166.89-28.5Q173.94-28.5 177.06-24.83 180.19-21.15 180.19-15.7L180.19-15.7 180.19-12.1 163.99-12.1 163.99-11.8Q163.99-9.95 165.09-9.08 166.19-8.2 168.74-8.2L168.74-8.2Q171.79-8.2 174.54-8.65 177.29-9.1 179.34-9.8L179.34-9.8 179.34-1.8Q177.59-0.85 174.21-0.08 170.84 0.7 166.89 0.7L166.89 0.7ZM163.99-17.6L169.79-17.6 169.79-18.2Q169.79-19.9 169.06-20.65 168.34-21.4 166.89-21.4L166.89-21.4Q165.44-21.4 164.71-20.63 163.99-19.85 163.99-18.2L163.99-18.2 163.99-17.6ZM193.84 0.7Q187.54 0.7 181.69-1.3L181.69-1.3 181.69-8.7 189.79-8.7 189.79-8.2Q189.79-5.8 192.84-5.8L192.84-5.8Q195.54-5.8 195.54-7.65L195.54-7.65Q195.54-8.65 194.76-9.15 193.99-9.65 192.04-10L192.04-10 189.54-10.45Q181.69-11.85 181.69-19.35L181.69-19.35Q181.69-23.7 184.99-26.1 188.29-28.5 193.89-28.5L193.89-28.5Q200.14-28.5 204.44-26.4L204.44-26.4 204.44-19.45 196.84-19.45 196.84-19.95Q196.84-20.95 196.16-21.48 195.49-22 194.19-22L194.19-22Q191.69-22 191.69-20.4L191.69-20.4Q191.69-19.55 192.39-19.1 193.09-18.65 194.94-18.25L194.94-18.25 197.79-17.7Q202.24-16.85 204.14-14.55 206.04-12.25 206.04-8.65L206.04-8.65Q206.04-4.1 202.86-1.7 199.69 0.7 193.84 0.7L193.84 0.7ZM219.78 0.7Q213.48 0.7 207.63-1.3L207.63-1.3 207.63-8.7 215.73-8.7 215.73-8.2Q215.73-5.8 218.78-5.8L218.78-5.8Q221.48-5.8 221.48-7.65L221.48-7.65Q221.48-8.65 220.71-9.15 219.93-9.65 217.98-10L217.98-10 215.48-10.45Q207.63-11.85 207.63-19.35L207.63-19.35Q207.63-23.7 210.93-26.1 214.23-28.5 219.83-28.5L219.83-28.5Q226.08-28.5 230.38-26.4L230.38-26.4 230.38-19.45 222.78-19.45 222.78-19.95Q222.78-20.95 222.11-21.48 221.43-22 220.13-22L220.13-22Q217.63-22 217.63-20.4L217.63-20.4Q217.63-19.55 218.33-19.1 219.03-18.65 220.88-18.25L220.88-18.25 223.73-17.7Q228.18-16.85 230.08-14.55 231.98-12.25 231.98-8.65L231.98-8.65Q231.98-4.1 228.81-1.7 225.63 0.7 219.78 0.7L219.78 0.7ZM260.73 0.7Q254.43 0.7 248.58-1.3L248.58-1.3 248.58-8.7 256.68-8.7 256.68-8.2Q256.68-5.8 259.73-5.8L259.73-5.8Q262.43-5.8 262.43-7.65L262.43-7.65Q262.43-8.65 261.65-9.15 260.88-9.65 258.93-10L258.93-10 256.43-10.45Q248.58-11.85 248.58-19.35L248.58-19.35Q248.58-23.7 251.88-26.1 255.18-28.5 260.78-28.5L260.78-28.5Q267.03-28.5 271.33-26.4L271.33-26.4 271.33-19.45 263.73-19.45 263.73-19.95Q263.73-20.95 263.05-21.48 262.38-22 261.08-22L261.08-22Q258.58-22 258.58-20.4L258.58-20.4Q258.58-19.55 259.28-19.1 259.98-18.65 261.83-18.25L261.83-18.25 264.68-17.7Q269.13-16.85 271.03-14.55 272.93-12.25 272.93-8.65L272.93-8.65Q272.93-4.1 269.75-1.7 266.58 0.7 260.73 0.7L260.73 0.7ZM287.13-30.55L276.93-30.55 276.93-38.9 287.13-38.9 287.13-30.55ZM290.43 0L274.52 0 274.52-8.2 276.73-8.2 276.73-19.6 274.52-19.6 274.52-27.8 288.23-27.8 288.23-8.2 290.43-8.2 290.43 0ZM304.17 0.7Q298.87 0.7 296.2-1.88 293.52-4.45 293.52-10.55L293.52-10.55 293.52-19.6 291.32-19.6 291.32-27.8Q293.22-27.8 294.17-28.78 295.12-29.75 295.12-31.45L295.12-31.45 295.12-33.7 305.72-33.7 305.72-27.8 312.47-27.8 312.47-19.6 305.72-19.6 305.72-11.4Q305.72-9.75 306.45-8.97 307.17-8.2 308.62-8.2L308.62-8.2Q310.52-8.2 312.77-8.65L312.77-8.65 312.77-0.8Q311.37-0.25 309 0.23 306.62 0.7 304.17 0.7L304.17 0.7ZM329.27 0.7Q322.17 0.7 318.17-3.03 314.17-6.75 314.17-13.9L314.17-13.9Q314.17-21.05 318.17-24.78 322.17-28.5 329.27-28.5L329.27-28.5Q336.32-28.5 339.45-24.83 342.57-21.15 342.57-15.7L342.57-15.7 342.57-12.1 326.37-12.1 326.37-11.8Q326.37-9.95 327.47-9.08 328.57-8.2 331.12-8.2L331.12-8.2Q334.17-8.2 336.92-8.65 339.67-9.1 341.72-9.8L341.72-9.8 341.72-1.8Q339.97-0.85 336.6-0.08 333.22 0.7 329.27 0.7L329.27 0.7ZM326.37-17.6L332.17-17.6 332.17-18.2Q332.17-19.9 331.45-20.65 330.72-21.4 329.27-21.4L329.27-21.4Q327.82-21.4 327.1-20.63 326.37-19.85 326.37-18.2L326.37-18.2 326.37-17.6Z" opacity="1" transform="matrix(1,0,0,1,0,0)" fill="#1d4ed8" class="wordmark-text-0" data-fill-palette-color="primary" id="text-0"></path></svg></g></svg></g></svg></g></svg></g><g><svg viewBox="0 0 111.63954798499263 111.63954798499263" height="111.63954798499263" width="111.63954798499263"><g><svg></svg></g><g id="icon-0"><svg viewBox="0 0 111.63954798499263 111.63954798499263" height="111.63954798499263" width="111.63954798499263"><g><path d="M0 55.82c0-30.828 24.991-55.82 55.82-55.82 30.828 0 55.82 24.991 55.82 55.82 0 30.828-24.991 55.82-55.82 55.82-30.828 0-55.82-24.991-55.82-55.82zM55.82 107.505c28.545 0 51.685-23.14 51.685-51.685 0-28.545-23.14-51.685-51.685-51.685-28.545 0-51.685 23.14-51.685 51.685 0 28.545 23.14 51.685 51.685 51.685z" data-fill-palette-color="accent" fill="#1d4ed8" stroke="transparent"></path></g><g transform="matrix(1,0,0,1,23.516973523005383,35.11008969150046)"><svg viewBox="0 0 64.60560093898187 41.41936860199171" height="41.41936860199171" width="64.60560093898187"><g><svg xmlns="http://www.w3.org/2000/svg" xmlns:xlink="http://www.w3.org/1999/xlink" version="1.1" x="0" y="0" viewBox="5 21.2 90 57.7" enable-background="new 0 0 100 100" xml:space="preserve" height="41.41936860199171" width="64.60560093898187" class="icon-dxe-0" data-fill-palette-color="accent" id="dxe-0"><g fill="#1d4ed8" data-fill-palette-color="accent"><g fill="#1d4ed8" data-fill-palette-color="accent"><path d="M50 21.2C25.1 21.2 5 30.2 5 41.2S25.1 61.2 50 61.2 95 52.2 95 41.2C95 30.1 74.9 21.2 50 21.2M68.5 33.5C65.6 32.4 62.4 31.9 58.8 31.9 54.9 31.9 51.6 32.3 48.9 33.2 47.3 33.7 45.9 34.4 44.6 35.3S42.5 37.1 42.3 38H66.3L65.4 40.1H41.7V42.1H64.3L63.3 44.2H42.4C43.4 46.6 45.8 48.3 49.5 49.3 52.2 50 55.1 50.4 58.3 50.4 62.7 50.4 66.1 49.9 68.6 48.9V52.1C65.7 52.7 62.4 53 58.9 53 48.3 53 41.1 51 37.4 47.1 36.6 46.3 36 45.3 35.5 44.2H30L31 42.1H34.7C34.6 41.7 34.6 41.2 34.6 40.7V40.1H30L31 38H35.1C36.6 34.6 40.3 32.2 46.5 30.7 50.3 29.8 54.4 29.3 59 29.3 63.4 29.3 67 29.7 70 30.6z" fill="#1d4ed8" data-fill-palette-color="accent"></path></g><g fill="#1d4ed8" data-fill-palette-color="accent"><path d="M50 64.8C25.2 64.8 5.2 56.1 5.2 45.5V60.8C5.2 71.4 25.2 78.9 49.9 78.9S94.7 71 94.7 60.4V45.5C94.8 56.1 74.8 64.8 50 64.8" fill="#1d4ed8" data-fill-palette-color="accent"></path></g></g></svg></g></svg></g></svg></g></svg></g></svg></g><defs></defs></svg><rect width="395.52" height="83.50038361467855" fill="none" stroke="none" visibility="hidden"></rect></g></svg></g></svg>