<svg xmlns="http://www.w3.org/2000/svg" viewBox="133.32 173.15 238.72 155.66">   <g transform="matrix(1.3049930334091187, 0, 0, 1.3272160291671753, 44.67660903930664, 39.95600891113281)" style="">     <svg xmlns="http://www.w3.org/2000/svg" viewBox="0 0 396 84" data-background-color="#ffffff" preserveAspectRatio="xMidYMid meet" height="318" width="1500">       <g id="tight-bounds" transform="matrix(1,0,0,1,0.2400000000000091,0.24963915119110425)">         <svg viewBox="0 0 395.52 83.50038361467855" height="83.50038361467855" width="395.52">           <g>             <svg viewBox="0 0 528.8080378502854 111.63954798499263" height="83.50038361467855" width="395.52">               <g transform="matrix(1,0,0,1,133.28803785028538,32.89443441404198)">                 <svg viewBox="0 0 395.52 45.85067915690867" height="45.85067915690867" width="395.52">                   <g id="textblocktransform">                     <svg viewBox="0 0 395.52 45.85067915690867" height="45.85067915690867" width="395.52" id="textblock">                       <g>                         <svg viewBox="0 0 395.52 45.85067915690867" height="45.85067915690867" width="395.52">                           <g transform="matrix(1,0,0,1,0,0)">                             <svg width="395.52" viewBox="1 -38.9 341.57 39.6" height="45.85067915690867" data-palette-color="#1d4ed8"></svg>                           </g>                         </svg>                       </g>                     </svg>                   </g>                 </svg>               </g>               <g>                 <svg viewBox="0 0 111.63954798499263 111.63954798499263" height="111.63954798499263" width="111.63954798499263">                   <g>                     <svg></svg>                   </g>                   <g id="icon-0">                     <svg viewBox="0 0 111.63954798499263 111.63954798499263" height="111.63954798499263" width="111.63954798499263">                       <g></g>                       <g transform="matrix(1,0,0,1,23.516973523005383,35.11008969150046)">                         <svg viewBox="0 0 64.60560093898187 41.41936860199171" height="41.41936860199171" width="64.60560093898187">                           <g>                             <svg xmlns="http://www.w3.org/2000/svg" version="1.1" x="0" y="0" viewBox="5 21.2 90 57.7" enable-background="new 0 0 100 100" height="41.41936860199171" width="64.60560093898187" class="icon-dxe-0" data-fill-palette-color="accent" id="dxe-0">                               <g fill="#1d4ed8" data-fill-palette-color="accent">                                 <g fill="#1d4ed8" data-fill-palette-color="accent">                                   <path d="M50 21.2C25.1 21.2 5 30.2 5 41.2S25.1 61.2 50 61.2 95 52.2 95 41.2C95 30.1 74.9 21.2 50 21.2M68.5 33.5C65.6 32.4 62.4 31.9 58.8 31.9 54.9 31.9 51.6 32.3 48.9 33.2 47.3 33.7 45.9 34.4 44.6 35.3S42.5 37.1 42.3 38H66.3L65.4 40.1H41.7V42.1H64.3L63.3 44.2H42.4C43.4 46.6 45.8 48.3 49.5 49.3 52.2 50 55.1 50.4 58.3 50.4 62.7 50.4 66.1 49.9 68.6 48.9V52.1C65.7 52.7 62.4 53 58.9 53 48.3 53 41.1 51 37.4 47.1 36.6 46.3 36 45.3 35.5 44.2H30L31 42.1H34.7C34.6 41.7 34.6 41.2 34.6 40.7V40.1H30L31 38H35.1C36.6 34.6 40.3 32.2 46.5 30.7 50.3 29.8 54.4 29.3 59 29.3 63.4 29.3 67 29.7 70 30.6z" fill="#1d4ed8" data-fill-palette-color="accent"></path>                                 </g>                                 <g fill="#1d4ed8" data-fill-palette-color="accent">                                   <path d="M50 64.8C25.2 64.8 5.2 56.1 5.2 45.5V60.8C5.2 71.4 25.2 78.9 49.9 78.9S94.7 71 94.7 60.4V45.5C94.8 56.1 74.8 64.8 50 64.8" fill="#1d4ed8" data-fill-palette-color="accent"></path>                                 </g>                               </g>                             </svg>                           </g>                         </svg>                       </g>                     </svg>                   </g>                 </svg>               </g>             </svg>           </g>           <defs></defs>         </svg>       </g>     </svg>   </g> </svg>